# xmcd
#
# Track frame offsets:
#	150
#	26931
#	39916
#	67443
#	85220
#	106349
#	120905
#	143258
#	162925
#	178545
#	203023
#
# Disc length: 2954 seconds
#
# Revision: 0
# Processed by: cddbd v1.4PL0 Copyright (c) Steve Scherf et al.
# Submitted via: dBpowerAMP V4.0
#
DISCID=8c0b880b
DTITLE=Bleu Edmondson - The Band Plays On
DYEAR=2002
DGENRE=Texas Country
TTITLE0=Southland
TTITLE1=Amy
TTITLE2=The Band Plays On
TTITLE3=I'm a Little Bit Crazy
TTITLE4=Let Me Fall
TTITLE5=Gypsy Wild
TTITLE6=A Good Thing
TTITLE7=Banks of the Mississippi
TTITLE8=No Surrender
TTITLE9=I'm Goin Home
TTITLE10=Unknown Track 11
EXTD=
EXTT0=
EXTT1=
EXTT2=
EXTT3=
EXTT4=
EXTT5=
EXTT6=
EXTT7=
EXTT8=
EXTT9=
EXTT10=
PLAYORDER=
